<svg xmlns="http://www.w3.org/2000/svg"
     width="172mm"
     height="172mm"
     viewBox="0 0 172 172"
     version="1.1">
  <circle r="86" cy="86" cx="86"
          style="fill:#18c;" />
  <g transform="translate(1,10)">
    <g transform="scale(1.23)">
      <path d="m 34.78,91.49 a 5.31,5.42 0 1 1 5.31,-5.42 5.31,5.42 0 0 1 -5.31,5.42 z M 134.36,59.38 c -3.85,-2.46 -8.25,-3.90 -12.79,-4.18 -0.78,-0.07 -1.56,-0.07 -2.33,0 -1.46,-4.97 -4.53,-9.29 -8.70,-12.26 -1.07,-0.73 -2.51,-0.57 -3.40,0.38 -3.72,5.09 -5.12,11.57 -3.82,17.79 0.09,0.81 -0.16,1.62 -0.69,2.22 -0.46,0.52 -1.12,0.82 -1.80,0.81 h -2.39 l -84.88,0.22 h -2.65 c -1.47,0 -2.65,1.21 -2.65,2.71 0,41.60 29.66,46.10 42.44,46.10 27.02,0.08 52.05,-14.54 65.68,-38.40 7.62,-1.03 14.46,-5.30 18.83,-11.77 0.71,-1.25 0.34,-2.85 -0.85,-3.63 z"
            style="fill:#ccc"/>
      <path d="m 39.11,37.70 c -1.64,0.00 -2.98,-1.35 -2.98,-2.99 0.00,-1.64 1.35,-2.98 2.99,-2.98 1.64,0.00 2.98,1.35 2.98,2.99 0.00,1.64 -1.35,2.98 -2.99,2.98 z M 107.85,24.95 c -0.32,-0.14 -0.65,-0.23 -0.97,-0.34 0.10,-1.11 -0.36,-1.82 -1.37,-2.16 -0.66,-0.22 -1.34,-0.22 -2.00,-0.03 -1.39,0.39 -2.47,1.27 -3.42,2.32 -0.21,0.23 -0.39,0.34 -0.71,0.34 -1.94,-0.01 -3.89,-0.01 -5.83,-6.88e-4 -0.30,0.00 -0.51,-0.11 -0.74,-0.30 -1.13,-0.91 -2.22,-1.90 -3.45,-2.66 -3.76,-2.32 -7.96,-3.20 -12.32,-3.34 -2.03,-0.06 -4.06,-0.01 -6.09,0.02 -2.99,0.05 -5.97,0.11 -8.96,0.19 -0.31,0.01 -0.48,-0.09 -0.65,-0.33 -0.59,-0.86 -1.31,-1.59 -2.21,-2.13 -2.27,-1.37 -4.61,-1.41 -7.00,-0.34 -0.34,0.15 -0.59,0.15 -0.93,-0.03 -2.44,-1.30 -4.87,-1.19 -7.11,0.39 -1.35,0.95 -2.55,2.12 -3.79,3.22 -0.29,0.26 -0.58,0.41 -0.95,0.47 -1.90,0.34 -3.75,0.83 -5.53,1.59 -3.55,1.50 -5.90,4.02 -6.78,7.84 -0.50,2.18 -0.60,4.40 -0.61,6.62 -0.02,10.11 -0.01,20.22 0.00,30.34 6.48e-4,1.42 0.65,2.50 1.93,3.12 1.79,0.86 3.67,0.87 5.55,0.31 1.76,-0.53 2.59,-1.66 2.70,-3.49 0.07,-1.12 0.16,-2.23 0.26,-3.34 0.27,-3.16 0.54,-6.33 0.82,-9.49 0.12,-1.28 0.44,-2.53 1.07,-3.68 0.89,-1.61 2.85,-2.57 4.92,-1.95 0,0.16 0,0.34 0,0.51 0,4.86 -0.09,9.71 -0.09,14.57 0.00,2.30 1.00,3.95 3.01,5.02 1.00,0.53 2.04,0.83 3.15,1.04 0.23,0.04 0.50,0.12 0.64,0.28 0.87,1.02 1.96,1.67 3.20,2.09 2.12,0.72 4.31,0.85 6.53,0.77 1.79,-0.06 3.64,-0.31 5.30,-1.00 2.51,-1.04 3.80,-2.83 3.80,-5.53 0,-2.94 0,-5.89 0,-8.83 0,-0.17 0,-0.34 0,-0.51 0.69,0.08 1.68,0.15 2.45,0.23 0.07,0.01 -0.38,0.04 0.31,0.06 0,0.16 0,0.32 0,0.48 0,2.06 -0.15,4.12 -0.16,6.18 0.00,2.10 0.83,3.67 2.62,4.74 1.36,0.82 2.84,1.16 4.39,1.38 0.16,0.02 0.31,0.11 0.45,0.19 0.79,0.44 1.53,1.02 2.37,1.30 3.71,1.21 7.46,1.18 11.19,0.09 1.13,-0.33 2.13,-0.91 2.95,-1.77 1.11,-1.16 1.43,-2.58 1.43,-4.14 -0.01,-6.17 0.00,-12.33 -0.02,-18.50 0.00,-0.79 0.05,-1.52 0.39,-2.26 0.24,-0.53 0.38,-1.11 0.48,-1.69 0.87,-4.84 0.12,-9.44 -2.11,-13.81 -0.08,-0.17 -0.17,-0.33 -0.28,-0.56 1.28,0 2.50,0.01 3.71,-0.01 0.27,0.00 0.44,0.08 0.64,0.28 1.28,1.30 2.76,2.24 4.63,2.40 1.78,0.16 2.81,-0.87 2.64,-2.61 0.17,-0.07 0.35,-0.13 0.52,-0.21 0.74,-0.34 1.42,-0.77 1.42,-1.68 6.90e-4,-0.91 -0.68,-1.35 -1.42,-1.67 z"
            style="fill:#fff"/>
    </g>
  </g>
</svg>
